<svg width="185" height="31" viewBox="0 0 185 31" fill="none" xmlns="http://www.w3.org/2000/svg">
<path d="M8.14773 30L0.136364 0.90909H1.10227L8.71591 28.5795H8.82955L16.2159 0.90909H17.4659L24.8523 28.5795H24.9659L32.5795 0.90909H33.5455L25.5341 30H24.2841L16.8977 2.32955H16.7841L9.39773 30H8.14773ZM37.6095 30V0.90909H53.1209V1.81818H38.5186V15H52.2686V15.9091H38.5186V29.0909H53.5186V30H37.6095ZM92.9393 15.4545C92.9393 18.5606 92.3712 21.2311 91.2348 23.4659C90.0984 25.6913 88.5407 27.4053 86.5615 28.608C84.5918 29.8011 82.3522 30.3977 79.8428 30.3977C77.3238 30.3977 75.0748 29.8011 73.0956 28.608C71.1259 27.4053 69.5729 25.6866 68.4365 23.4517C67.3001 21.2169 66.732 18.5511 66.732 15.4545C66.732 12.3485 67.3001 9.68276 68.4365 7.45739C69.5729 5.22254 71.1259 3.50852 73.0956 2.31534C75.0748 1.11269 77.3238 0.511363 79.8428 0.511363C82.3522 0.511363 84.5918 1.11269 86.5615 2.31534C88.5407 3.50852 90.0984 5.22254 91.2348 7.45739C92.3712 9.68276 92.9393 12.3485 92.9393 15.4545ZM88.5928 15.4545C88.5928 13.0871 88.2092 11.0937 87.4422 9.47443C86.6846 7.84564 85.6429 6.61458 84.3172 5.78125C83.0009 4.93845 81.5094 4.51705 79.8428 4.51705C78.1666 4.51705 76.6704 4.93845 75.3541 5.78125C74.0378 6.61458 72.9962 7.84564 72.2291 9.47443C71.4715 11.0937 71.0928 13.0871 71.0928 15.4545C71.0928 17.822 71.4715 19.8201 72.2291 21.4489C72.9962 23.0682 74.0378 24.2992 75.3541 25.142C76.6704 25.9754 78.1666 26.392 79.8428 26.392C81.5094 26.392 83.0009 25.9754 84.3172 25.142C85.6429 24.2992 86.6846 23.0682 87.4422 21.4489C88.2092 19.8201 88.5928 17.822 88.5928 15.4545ZM96.8116 30V0.90909H114.851V4.6875H101.201V13.5511H113.559V17.3153H101.201V30H96.8116ZM118.649 30V0.90909H136.689V4.6875H123.038V13.5511H135.396V17.3153H123.038V30H118.649ZM140.487 30V0.90909H158.725V4.6875H144.876V13.5511H157.774V17.3153H144.876V26.2216H158.896V30H140.487ZM162.988 30V0.90909H173.358C175.611 0.90909 177.482 1.29735 178.968 2.07386C180.465 2.85038 181.582 3.92519 182.321 5.2983C183.059 6.66193 183.429 8.23864 183.429 10.0284C183.429 11.8087 183.055 13.3759 182.306 14.7301C181.568 16.0748 180.45 17.1212 178.954 17.8693C177.467 18.6174 175.597 18.9915 173.343 18.9915H165.488V15.2131H172.946C174.366 15.2131 175.521 15.0095 176.412 14.6023C177.311 14.1951 177.969 13.6032 178.386 12.8267C178.803 12.0502 179.011 11.1174 179.011 10.0284C179.011 8.92992 178.798 7.97822 178.372 7.1733C177.955 6.36837 177.297 5.75284 176.397 5.3267C175.507 4.8911 174.338 4.6733 172.889 4.6733H167.377V30H162.988ZM177.349 16.875L184.537 30H179.537L172.491 16.875H177.349Z" fill="white"/>
</svg>
